<svg width="139" height="43" viewBox="0 0 139 43" fill="none" xmlns="http://www.w3.org/2000/svg">
<path d="M20.2913 28C20.1846 28 20.0993 27.968 20.0353 27.904C19.9713 27.8293 19.9393 27.7387 19.9393 27.632V17.184C19.9393 17.0667 19.9713 16.976 20.0353 16.912C20.0993 16.8373 20.1846 16.8 20.2913 16.8H26.8673C26.9846 16.8 27.0753 16.8373 27.1393 16.912C27.2139 16.976 27.2513 17.0667 27.2513 17.184V17.76C27.2513 17.8667 27.2139 17.952 27.1393 18.016C27.0753 18.08 26.9846 18.112 26.8673 18.112H21.4113V21.68H26.5153C26.6326 21.68 26.7233 21.7173 26.7873 21.792C26.8619 21.856 26.8993 21.9467 26.8993 22.064V22.608C26.8993 22.7147 26.8619 22.8053 26.7873 22.88C26.7233 22.944 26.6326 22.976 26.5153 22.976H21.4113V26.672H26.9953C27.1126 26.672 27.2033 26.7093 27.2673 26.784C27.3419 26.848 27.3793 26.9387 27.3793 27.056V27.632C27.3793 27.7387 27.3419 27.8293 27.2673 27.904C27.1926 27.968 27.1019 28 26.9953 28H20.2913ZM29.9788 28C29.8721 28 29.7868 27.968 29.7228 27.904C29.6588 27.8293 29.6268 27.7387 29.6268 27.632V17.184C29.6268 17.0667 29.6588 16.976 29.7228 16.912C29.7868 16.8373 29.8721 16.8 29.9788 16.8H33.5948C35.2054 16.8 36.3681 17.1627 37.0828 17.888C37.7974 18.6027 38.1654 19.6853 38.1868 21.136C38.1974 21.4453 38.2028 21.8613 38.2028 22.384C38.2028 22.9067 38.1974 23.328 38.1868 23.648C38.1654 24.6613 38.0001 25.488 37.6908 26.128C37.3921 26.7573 36.9174 27.2267 36.2668 27.536C35.6161 27.8453 34.7521 28 33.6748 28H29.9788ZM33.5948 26.672C34.3414 26.672 34.9334 26.5707 35.3708 26.368C35.8188 26.1547 36.1388 25.8293 36.3308 25.392C36.5334 24.944 36.6454 24.3413 36.6667 23.584C36.6881 22.944 36.6988 22.544 36.6988 22.384C36.6988 22.2133 36.6881 21.8187 36.6667 21.2C36.6454 20.1333 36.3894 19.3547 35.8988 18.864C35.4188 18.3627 34.6241 18.112 33.5148 18.112H31.1308V26.672H33.5948ZM46.8304 28C46.553 28 46.3557 27.8667 46.2384 27.6L43.2624 20.176C43.2517 20.144 43.2464 20.0907 43.2464 20.016C43.2464 19.92 43.2784 19.84 43.3424 19.776C43.4064 19.712 43.481 19.68 43.5664 19.68H44.3024C44.473 19.68 44.601 19.7653 44.6864 19.936L47.1504 26.32L49.6144 19.936C49.6357 19.872 49.6784 19.8133 49.7424 19.76C49.817 19.7067 49.9024 19.68 49.9984 19.68H50.7344C50.8197 19.68 50.8944 19.712 50.9584 19.776C51.0224 19.84 51.0544 19.92 51.0544 20.016L51.0224 20.176L48.0624 27.6C47.945 27.8667 47.7477 28 47.4704 28H46.8304ZM53.0025 18.112C52.8958 18.112 52.8052 18.08 52.7305 18.016C52.6665 17.9413 52.6345 17.8507 52.6345 17.744V16.912C52.6345 16.8053 52.6665 16.7147 52.7305 16.64C52.8052 16.5653 52.8958 16.528 53.0025 16.528H53.9465C54.0532 16.528 54.1438 16.5653 54.2185 16.64C54.2932 16.7147 54.3305 16.8053 54.3305 16.912V17.744C54.3305 17.8507 54.2932 17.9413 54.2185 18.016C54.1438 18.08 54.0532 18.112 53.9465 18.112H53.0025ZM53.1305 28C53.0238 28 52.9332 27.968 52.8585 27.904C52.7945 27.8293 52.7625 27.7387 52.7625 27.632V20.048C52.7625 19.9413 52.7945 19.856 52.8585 19.792C52.9332 19.7173 53.0238 19.68 53.1305 19.68H53.8345C53.9412 19.68 54.0265 19.7173 54.0905 19.792C54.1652 19.856 54.2025 19.9413 54.2025 20.048V27.632C54.2025 27.7387 54.1652 27.8293 54.0905 27.904C54.0265 27.968 53.9412 28 53.8345 28H53.1305ZM59.6463 28.16C58.5263 28.16 57.6836 27.7973 57.1183 27.072C56.5636 26.3467 56.2649 25.4293 56.2223 24.32L56.2063 23.84L56.2223 23.36C56.2649 22.2613 56.5689 21.3493 57.1343 20.624C57.6996 19.888 58.5369 19.52 59.6463 19.52C60.7556 19.52 61.6196 19.9147 62.2383 20.704V17.008C62.2383 16.9013 62.2703 16.816 62.3343 16.752C62.4089 16.6773 62.4996 16.64 62.6063 16.64H63.3263C63.4329 16.64 63.5183 16.6773 63.5823 16.752C63.6569 16.816 63.6943 16.9013 63.6943 17.008V27.632C63.6943 27.7387 63.6569 27.8293 63.5823 27.904C63.5183 27.968 63.4329 28 63.3263 28H62.6383C62.5316 28 62.4463 27.968 62.3823 27.904C62.3183 27.8293 62.2863 27.7387 62.2863 27.632V26.944C61.6783 27.7547 60.7983 28.16 59.6463 28.16ZM59.9503 26.912C60.6969 26.912 61.2569 26.6667 61.6303 26.176C62.0036 25.6747 62.2063 25.0827 62.2383 24.4C62.2489 24.2827 62.2543 24.08 62.2543 23.792C62.2543 23.4933 62.2489 23.2853 62.2383 23.168C62.2169 22.5173 62.0089 21.9573 61.6143 21.488C61.2303 21.008 60.6756 20.768 59.9503 20.768C59.1823 20.768 58.6223 21.008 58.2703 21.488C57.9183 21.968 57.7263 22.5973 57.6943 23.376L57.6783 23.84C57.6783 25.888 58.4356 26.912 59.9503 26.912ZM69.4023 28.16C68.3143 28.16 67.4449 27.824 66.7943 27.152C66.1436 26.4693 65.7863 25.5413 65.7223 24.368L65.7063 23.824L65.7223 23.296C65.7863 22.144 66.1436 21.2267 66.7943 20.544C67.4449 19.8613 68.3143 19.52 69.4023 19.52C70.5756 19.52 71.4823 19.8933 72.1223 20.64C72.7729 21.3867 73.0983 22.4 73.0983 23.68V23.968C73.0983 24.0747 73.0609 24.1653 72.9862 24.24C72.9223 24.304 72.8369 24.336 72.7303 24.336H67.1783V24.48C67.2103 25.1733 67.4236 25.7653 67.8183 26.256C68.2129 26.7467 68.7356 26.992 69.3863 26.992C69.8876 26.992 70.2929 26.896 70.6023 26.704C70.9223 26.5013 71.1623 26.2933 71.3223 26.08C71.4183 25.952 71.4929 25.8773 71.5463 25.856C71.5996 25.824 71.6903 25.808 71.8183 25.808H72.5223C72.6183 25.808 72.6983 25.8347 72.7623 25.888C72.8369 25.9413 72.8743 26.0107 72.8743 26.096C72.8743 26.3307 72.7303 26.6133 72.4423 26.944C72.1543 27.2747 71.7436 27.5627 71.2103 27.808C70.6876 28.0427 70.0849 28.16 69.4023 28.16ZM71.6423 23.248V23.2C71.6423 22.4533 71.4396 21.8453 71.0343 21.376C70.6289 20.9067 70.0849 20.672 69.4023 20.672C68.7089 20.672 68.1649 20.9067 67.7703 21.376C67.3756 21.8453 67.1783 22.4533 67.1783 23.2V23.248H71.6423ZM78.4198 28.16C77.2464 28.16 76.3398 27.8293 75.6998 27.168C75.0704 26.5067 74.7344 25.6267 74.6918 24.528L74.6758 23.84L74.6918 23.152C74.7344 22.0533 75.0758 21.1733 75.7158 20.512C76.3664 19.8507 77.2678 19.52 78.4198 19.52C79.5718 19.52 80.4678 19.8507 81.1078 20.512C81.7584 21.1733 82.1051 22.0533 82.1478 23.152C82.1691 23.3867 82.1798 23.616 82.1798 23.84C82.1798 24.064 82.1691 24.2933 82.1478 24.528C82.1051 25.6267 81.7638 26.5067 81.1238 27.168C80.4944 27.8293 79.5931 28.16 78.4198 28.16ZM78.4198 26.96C79.1024 26.96 79.6411 26.7467 80.0358 26.32C80.4411 25.8827 80.6598 25.2587 80.6918 24.448C80.7024 24.3413 80.7078 24.1387 80.7078 23.84C80.7078 23.5413 80.7024 23.3387 80.6918 23.232C80.6598 22.4213 80.4411 21.8027 80.0358 21.376C79.6411 20.9387 79.1024 20.72 78.4198 20.72C77.7371 20.72 77.1931 20.9387 76.7878 21.376C76.3931 21.8027 76.1798 22.4213 76.1478 23.232L76.1318 23.84L76.1478 24.448C76.1798 25.2587 76.3931 25.8827 76.7878 26.32C77.1931 26.7467 77.7371 26.96 78.4198 26.96Z" fill="#6515DD"/>
<mask id="mask0" mask-type="alpha" maskUnits="userSpaceOnUse" x="81" y="10" width="42" height="23">
<path fill-rule="evenodd" clip-rule="evenodd" d="M92.5 10C86.1487 10 81 15.1487 81 21.5C81 27.8513 86.1487 33 92.5 33H111.5C117.851 33 123 27.8513 123 21.5C123 15.1487 117.851 10 111.5 10H92.5ZM94 13C89.5817 13 86 16.5817 86 21V22C86 26.4183 89.5817 30 94 30H111C115.418 30 119 26.4183 119 22V21C119 16.5817 115.418 13 111 13H94Z" fill="url(#paint0_linear)"/>
</mask>
<g mask="url(#mask0)">
<rect x="105" y="8" width="26" height="28" fill="#6515DD"/>
</g>
<rect x="89" y="20" width="15" height="3" fill="#00B6DE"/>
<rect x="104" y="13" width="15" height="3" transform="rotate(-180 104 13)" fill="#6515DD"/>
<rect x="104" y="33" width="15" height="3" transform="rotate(-180 104 33)" fill="#6515DD"/>
<defs>
<linearGradient id="paint0_linear" x1="102.044" y1="31.2308" x2="102.044" y2="13.534" gradientUnits="userSpaceOnUse">
<stop stop-color="#41EC9E"/>
<stop offset="0.885417" stop-color="#3FEFB0"/>
</linearGradient>
</defs>
</svg>
