<?xml version="1.0" encoding="utf-8"?>
<!-- Generator: Adobe Illustrator 19.0.0, SVG Export Plug-In . SVG Version: 6.00 Build 0)  -->
<svg version="1.1" id="Layer_1" xmlns="http://www.w3.org/2000/svg" xmlns:xlink="http://www.w3.org/1999/xlink" x="0px" y="0px"
	 viewBox="0 0 545.6 414.3" enable-background="new 0 0 545.6 414.3" xml:space="preserve">
<g id="XMLID_253_">
	<rect id="XMLID_271_" x="14.4" y="357.7" fill="#F9554C" width="232" height="45.1"/>
	<rect id="XMLID_270_" x="14.4" y="12.7" fill="#F9554C" width="232" height="45.1"/>
	<linearGradient id="XMLID_49_" gradientUnits="userSpaceOnUse" x1="14.4337" y1="207.7665" x2="246.4096" y2="207.7665">
		<stop  offset="0" style="stop-color:#F9554C"/>
		<stop  offset="0.1925" style="stop-color:#F95F43"/>
		<stop  offset="0.5257" style="stop-color:#F87C2C"/>
		<stop  offset="0.9573" style="stop-color:#F6A906"/>
		<stop  offset="1" style="stop-color:#F6AE02"/>
	</linearGradient>
	<rect id="XMLID_269_" x="14.4" y="185.2" fill="url(#XMLID_49_)" width="232" height="45.1"/>
	<linearGradient id="XMLID_50_" gradientUnits="userSpaceOnUse" x1="267.0117" y1="207.7666" x2="537.7095" y2="207.7666">
		<stop  offset="0" style="stop-color:#F9554C"/>
		<stop  offset="0.1925" style="stop-color:#F95F43"/>
		<stop  offset="0.5257" style="stop-color:#F87C2C"/>
		<stop  offset="0.9573" style="stop-color:#F6A906"/>
		<stop  offset="1" style="stop-color:#F6AE02"/>
	</linearGradient>
	<path id="XMLID_268_" fill="url(#XMLID_50_)" d="M537.7,207.8c0,107.7-87.3,195-195,195H267v-45.1h75.7
		c82.8,0,149.9-67.1,149.9-149.9c0-82.8-67.1-149.9-149.9-149.9H267V12.7h75.7C450.4,12.7,537.7,100,537.7,207.8z"/>
	<g id="XMLID_254_">
		<path id="XMLID_265_" fill="#FFFFFF" stroke="#FFFFFF" stroke-width="2.4168" stroke-miterlimit="10" d="M73.7,192.2h4.4L65,223.3
			h-1l-13.4-31.1H55l9.4,21.7L73.7,192.2z"/>
		<path id="XMLID_263_" fill="#FFFFFF" stroke="#FFFFFF" stroke-width="2.4168" stroke-miterlimit="10" d="M88.4,192.2h4.5v31h-4.5
			V192.2z"/>
		<path id="XMLID_260_" fill="#FFFFFF" stroke="#FFFFFF" stroke-width="2.4168" stroke-miterlimit="10" d="M110.3,223.3v-31h10.5
			c4.2,0,7.6,0.6,10,1.9c2.5,1.3,4.4,3.1,5.9,5.6c1.5,2.5,2.2,5.1,2.2,8.1c0,2.1-0.4,4.1-1.2,6c-0.8,1.9-1.9,3.6-3.4,5
			c-1.5,1.5-3.3,2.6-5.3,3.4c-1.2,0.5-2.2,0.8-3.2,0.9c-1,0.2-2.8,0.2-5.6,0.2H110.3z M120.3,196.2h-5.6v23.1h5.7
			c2.2,0,4-0.2,5.2-0.5c1.2-0.3,2.3-0.7,3.1-1.2c0.8-0.5,1.6-1,2.3-1.7c2.2-2.2,3.3-5,3.3-8.4c0-3.3-1.1-6.1-3.4-8.2
			c-0.8-0.8-1.8-1.4-2.9-1.9c-1.1-0.5-2.1-0.8-3.1-1C124,196.3,122.4,196.2,120.3,196.2z"/>
		<path id="XMLID_258_" fill="#FFFFFF" stroke="#FFFFFF" stroke-width="2.4168" stroke-miterlimit="10" d="M149.1,192.2h17.6v4
			h-13.2v9.5h12.7v4h-12.7v9.7h13.6v4h-18V192.2z"/>
		<path id="XMLID_255_" fill="#FFFFFF" stroke="#FFFFFF" stroke-width="2.4168" stroke-miterlimit="10" d="M193.9,192.2
			c4.7,0,8.6,1.5,11.7,4.4c3.1,3,4.7,6.7,4.7,11.1s-1.6,8.2-4.7,11.1c-3.1,2.9-7.1,4.4-11.9,4.4c-4.6,0-8.4-1.5-11.4-4.4
			c-3-2.9-4.6-6.6-4.6-11c0-4.5,1.5-8.3,4.6-11.2C185.4,193.7,189.3,192.2,193.9,192.2z M194.1,196.4c-3.5,0-6.3,1.1-8.5,3.2
			c-2.2,2.2-3.3,4.9-3.3,8.3c0,3.3,1.1,6,3.4,8.1c2.2,2.2,5,3.2,8.4,3.2c3.4,0,6.2-1.1,8.5-3.3c2.3-2.2,3.4-5,3.4-8.3
			c0-3.2-1.1-5.9-3.4-8.1C200.2,197.4,197.4,196.4,194.1,196.4z"/>
	</g>
</g>
</svg>
